<mxfile host="app.diagrams.net" modified="2024-02-27T18:42:33.020Z" agent="Mozilla/5.0 (Windows NT 10.0; Win64; x64) AppleWebKit/537.36 (KHTML, like Gecko) Chrome/121.0.0.0 Safari/537.36" etag="N-YZ4Fc7hA7eBnMhtEn-" version="23.1.7" type="device">
  <diagram name="Page-1" id="nHyVZgsg8xfCmzDprGkU">
    <mxGraphModel dx="607" dy="349" grid="1" gridSize="10" guides="1" tooltips="1" connect="1" arrows="1" fold="1" page="1" pageScale="1" pageWidth="827" pageHeight="1169" math="0" shadow="0">
      <root>
        <mxCell id="0" />
        <mxCell id="1" parent="0" />
        <mxCell id="xHTlSCXwg0LCTXnB72qJ-1" value="Library Information System" style="strokeWidth=2;html=1;shape=mxgraph.flowchart.start_2;whiteSpace=wrap;" vertex="1" parent="1">
          <mxGeometry x="314" y="70" width="100" height="100" as="geometry" />
        </mxCell>
        <mxCell id="xHTlSCXwg0LCTXnB72qJ-7" value="" style="endArrow=classic;html=1;rounded=0;entryX=0.013;entryY=0.395;entryDx=0;entryDy=0;entryPerimeter=0;exitX=1.001;exitY=0.41;exitDx=0;exitDy=0;exitPerimeter=0;" edge="1" parent="1" source="xHTlSCXwg0LCTXnB72qJ-1">
          <mxGeometry width="50" height="50" relative="1" as="geometry">
            <mxPoint x="404.7" y="110.5" as="sourcePoint" />
            <mxPoint x="500.00000000000006" y="109.99999999999994" as="targetPoint" />
            <Array as="points">
              <mxPoint x="434.7" y="110.5" />
            </Array>
          </mxGeometry>
        </mxCell>
        <mxCell id="xHTlSCXwg0LCTXnB72qJ-8" value="" style="endArrow=classic;html=1;rounded=0;entryX=0.013;entryY=0.395;entryDx=0;entryDy=0;entryPerimeter=0;" edge="1" parent="1">
          <mxGeometry width="50" height="50" relative="1" as="geometry">
            <mxPoint x="220" y="130.5" as="sourcePoint" />
            <mxPoint x="315.30000000000007" y="129.99999999999994" as="targetPoint" />
            <Array as="points">
              <mxPoint x="250" y="130.5" />
            </Array>
          </mxGeometry>
        </mxCell>
        <mxCell id="xHTlSCXwg0LCTXnB72qJ-10" value="" style="endArrow=classic;html=1;rounded=0;entryX=0.013;entryY=0.395;entryDx=0;entryDy=0;entryPerimeter=0;" edge="1" parent="1">
          <mxGeometry width="50" height="50" relative="1" as="geometry">
            <mxPoint x="220" y="110.5" as="sourcePoint" />
            <mxPoint x="315.30000000000007" y="109.99999999999994" as="targetPoint" />
            <Array as="points">
              <mxPoint x="250" y="110.5" />
            </Array>
          </mxGeometry>
        </mxCell>
        <mxCell id="xHTlSCXwg0LCTXnB72qJ-12" value="" style="endArrow=classic;html=1;rounded=0;exitX=0.07;exitY=0.773;exitDx=0;exitDy=0;exitPerimeter=0;entryX=0.581;entryY=0.956;entryDx=0;entryDy=0;entryPerimeter=0;" edge="1" parent="1" source="xHTlSCXwg0LCTXnB72qJ-1" target="xHTlSCXwg0LCTXnB72qJ-13">
          <mxGeometry width="50" height="50" relative="1" as="geometry">
            <mxPoint x="321.6" y="145.9" as="sourcePoint" />
            <mxPoint x="190" y="137.5" as="targetPoint" />
            <Array as="points">
              <mxPoint x="190" y="148.5" />
            </Array>
          </mxGeometry>
        </mxCell>
        <mxCell id="xHTlSCXwg0LCTXnB72qJ-13" value="&lt;b&gt;Students&lt;/b&gt;" style="rounded=0;whiteSpace=wrap;html=1;" vertex="1" parent="1">
          <mxGeometry x="150" y="105" width="70" height="30" as="geometry" />
        </mxCell>
        <mxCell id="xHTlSCXwg0LCTXnB72qJ-14" value="&lt;b&gt;Display of Books&lt;/b&gt;" style="rounded=0;whiteSpace=wrap;html=1;" vertex="1" parent="1">
          <mxGeometry x="500" y="100" width="70" height="30" as="geometry" />
        </mxCell>
        <mxCell id="xHTlSCXwg0LCTXnB72qJ-15" value="&lt;font style=&quot;font-size: 9px;&quot;&gt;BookRequest&lt;/font&gt;" style="text;html=1;align=center;verticalAlign=middle;resizable=0;points=[];autosize=1;strokeColor=none;fillColor=none;" vertex="1" parent="1">
          <mxGeometry x="220" y="88" width="80" height="30" as="geometry" />
        </mxCell>
        <mxCell id="xHTlSCXwg0LCTXnB72qJ-16" value="&lt;font style=&quot;font-size: 9px;&quot;&gt;Library card&lt;/font&gt;" style="text;html=1;align=center;verticalAlign=middle;resizable=0;points=[];autosize=1;strokeColor=none;fillColor=none;" vertex="1" parent="1">
          <mxGeometry x="225" y="108" width="70" height="30" as="geometry" />
        </mxCell>
        <mxCell id="xHTlSCXwg0LCTXnB72qJ-17" value="&lt;font style=&quot;font-size: 9px;&quot;&gt;Book&lt;/font&gt;" style="text;html=1;align=center;verticalAlign=middle;resizable=0;points=[];autosize=1;strokeColor=none;fillColor=none;" vertex="1" parent="1">
          <mxGeometry x="240" y="138" width="40" height="30" as="geometry" />
        </mxCell>
        <mxCell id="xHTlSCXwg0LCTXnB72qJ-18" value="&lt;font style=&quot;font-size: 6px;&quot;&gt;Demanded book info&lt;/font&gt;" style="text;html=1;align=center;verticalAlign=middle;resizable=0;points=[];autosize=1;strokeColor=none;fillColor=none;" vertex="1" parent="1">
          <mxGeometry x="414" y="88" width="80" height="30" as="geometry" />
        </mxCell>
        <mxCell id="xHTlSCXwg0LCTXnB72qJ-19" value="Library Information System" style="strokeWidth=2;html=1;shape=mxgraph.flowchart.start_2;whiteSpace=wrap;" vertex="1" parent="1">
          <mxGeometry x="314" y="230" width="100" height="100" as="geometry" />
        </mxCell>
        <mxCell id="xHTlSCXwg0LCTXnB72qJ-20" value="Library Information System" style="strokeWidth=2;html=1;shape=mxgraph.flowchart.start_2;whiteSpace=wrap;" vertex="1" parent="1">
          <mxGeometry x="314" y="420" width="100" height="100" as="geometry" />
        </mxCell>
        <mxCell id="xHTlSCXwg0LCTXnB72qJ-21" value="" style="shape=partialRectangle;whiteSpace=wrap;html=1;left=0;right=0;fillColor=none;fontSize=8;" vertex="1" parent="1">
          <mxGeometry x="500" y="210" width="60" height="20" as="geometry" />
        </mxCell>
        <mxCell id="xHTlSCXwg0LCTXnB72qJ-22" value="" style="shape=partialRectangle;whiteSpace=wrap;html=1;left=0;right=0;fillColor=none;fontSize=8;" vertex="1" parent="1">
          <mxGeometry x="500" y="240" width="60" height="20" as="geometry" />
        </mxCell>
        <mxCell id="xHTlSCXwg0LCTXnB72qJ-23" value="" style="shape=partialRectangle;whiteSpace=wrap;html=1;left=0;right=0;fillColor=none;fontSize=8;" vertex="1" parent="1">
          <mxGeometry x="500" y="270" width="60" height="20" as="geometry" />
        </mxCell>
      </root>
    </mxGraphModel>
  </diagram>
</mxfile>
